<?xml version="1.0" standalone="no"?>
<!DOCTYPE svg PUBLIC "-//W3C//DTD SVG 20010904//EN"
 "http://www.w3.org/TR/2001/REC-SVG-20010904/DTD/svg10.dtd">
<svg version="1.0" xmlns="http://www.w3.org/2000/svg"
 width="1024.000000pt" height="1024.000000pt" viewBox="0 0 1024.000000 1024.000000"
 preserveAspectRatio="xMidYMid meet">
<metadata>
Created by potrace 1.14, written by Peter Selinger 2001-2017
</metadata>
<g transform="translate(0.000000,1024.000000) scale(0.100000,-0.100000)"
fill="#000000" stroke="none">
<path d="M1626 8868 c-62 -51 -76 -97 -76 -256 0 -156 13 -224 80 -416 99
-283 282 -541 438 -618 l47 -23 972 -5 971 -5 43 -30 c129 -91 176 -400 128
-855 -9 -94 -50 -394 -69 -520 -34 -216 -140 -734 -212 -1030 -21 -91 -44
-187 -49 -215 -5 -27 -27 -122 -49 -210 -23 -88 -62 -241 -87 -340 -52 -206
-115 -449 -178 -680 -24 -88 -64 -239 -90 -335 -26 -96 -67 -245 -90 -330
-313 -1139 -344 -1284 -297 -1376 52 -102 192 -181 400 -223 82 -17 416 -14
504 4 119 26 199 53 269 95 66 39 142 112 159 153 11 27 82 255 143 462 505
1701 870 3191 1066 4350 55 322 126 877 132 1028 l2 58 466 -3 c449 -3 467 -4
501 -24 53 -31 83 -93 88 -183 6 -111 -17 -249 -103 -606 -59 -247 -76 -342
-82 -470 -5 -100 -3 -114 17 -158 35 -75 115 -138 226 -181 139 -53 249 -70
424 -63 157 6 251 25 381 75 123 47 233 132 273 210 23 45 202 642 247 822 99
400 155 675 184 903 24 186 17 594 -12 687 -50 161 -128 265 -236 316 l-52 24
-3220 0 -3220 0 -39 -32z"/>
</g>
</svg>
